<?xml version="1.0" standalone="no"?>
<!DOCTYPE svg PUBLIC "-//W3C//DTD SVG 20010904//EN"
 "http://www.w3.org/TR/2001/REC-SVG-20010904/DTD/svg10.dtd">
<svg version="1.0" xmlns="http://www.w3.org/2000/svg"
 width="360.000000pt" height="360.000000pt" viewBox="0 0 360.000000 360.000000"
 preserveAspectRatio="xMidYMid meet">
<metadata>
Created by potrace 1.11, written by Peter Selinger 2001-2013
</metadata>
<g transform="translate(0.000000,360.000000) scale(0.100000,-0.100000)"
fill="#000000" stroke="none">
<path d="M1653 3580 c-608 -50 -1158 -418 -1437 -960 -120 -234 -176 -433
-195 -698 -35 -475 134 -965 454 -1319 441 -487 1117 -691 1760 -532 666 165
1177 700 1315 1379 50 246 43 544 -19 787 -191 746 -825 1279 -1598 1343 -130
11 -146 11 -280 0z m318 -71 c465 -47 883 -275 1173 -638 561 -702 479 -1737
-184 -2339 -355 -322 -824 -482 -1297 -443 -1216 100 -1944 1392 -1398 2481
320 639 997 1012 1706 939z"/>
<path d="M1490 3271 c-14 -4 -27 -16 -29 -26 -3 -17 -1 -18 13 -6 9 8 18 12
20 10 1 -2 8 -43 15 -91 l13 -88 37 0 c46 0 102 28 120 61 19 34 7 94 -24 125
-20 20 -34 24 -82 23 -32 -1 -69 -4 -83 -8z m124 -11 c27 -10 56 -56 56 -90 0
-35 -53 -80 -93 -80 -39 0 -41 4 -53 107 l-6 61 28 5 c16 2 32 5 36 6 4 0 18
-3 32 -9z"/>
<path d="M1775 3238 c-29 -16 -35 -28 -35 -70 0 -68 68 -102 119 -60 38 30 28
116 -16 133 -31 12 -43 11 -68 -3z m75 -28 c24 -24 25 -48 4 -78 -35 -51 -114
-9 -98 52 11 47 60 60 94 26z"/>
<path d="M1935 3218 c3 -13 1 -45 -4 -73 -9 -48 -7 -65 5 -53 3 3 8 28 12 54
6 37 13 51 31 60 46 23 62 2 52 -67 -4 -25 -5 -51 -3 -57 4 -14 42 -16 42 -2
0 6 -6 10 -12 10 -9 0 -13 20 -13 67 l0 68 -47 -1 c-27 0 -48 3 -48 8 0 4 -5
8 -10 8 -6 0 -8 -10 -5 -22z"/>
<path d="M2305 3114 c-34 -88 -36 -97 -21 -112 18 -18 34 -9 18 11 -9 10 -3
33 23 96 37 86 40 101 27 101 -5 0 -26 -43 -47 -96z"/>
<path d="M2128 3174 c-9 -11 -19 -35 -23 -56 -6 -29 -3 -40 14 -57 12 -12 32
-21 46 -21 14 0 34 -5 45 -12 10 -7 23 -9 27 -5 4 5 1 12 -7 17 -12 7 -11 18
4 71 9 34 14 64 12 67 -3 3 -27 7 -53 9 -38 4 -52 1 -65 -13z m76 -3 c23 -9
24 -12 13 -48 -14 -50 -25 -63 -53 -63 -46 0 -57 58 -19 95 28 29 26 28 59 16z"/>
<path d="M1337 3166 c-9 -9 -23 -13 -31 -10 -16 6 -23 -11 -8 -20 5 -3 17 -32
27 -66 10 -33 22 -57 26 -53 5 5 2 30 -6 57 -16 51 -9 78 21 90 23 9 36 -6 55
-62 11 -34 21 -48 37 -50 12 -2 22 1 22 7 0 6 -6 11 -14 11 -7 0 -22 24 -32
53 -17 46 -23 52 -50 55 -19 2 -38 -3 -47 -12z"/>
<path d="M1190 3112 c-44 -22 -61 -54 -49 -96 17 -60 82 -83 114 -41 6 7 22
15 35 17 14 1 24 8 22 13 -2 6 -9 9 -16 8 -6 -2 -25 24 -41 56 l-30 59 -35
-16z m44 -51 c20 -44 18 -69 -5 -84 -23 -14 -67 15 -75 50 -6 21 -2 31 20 50
15 13 31 23 35 23 4 0 16 -17 25 -39z"/>
<path d="M2510 3101 c-11 -29 -12 -29 -45 -15 -55 23 -99 -3 -111 -64 -5 -25
-1 -36 20 -57 15 -15 33 -24 41 -22 7 3 16 -1 19 -9 3 -8 13 -14 22 -14 12 0
14 3 6 13 -8 9 1 34 34 96 24 46 44 87 44 92 0 20 -18 7 -30 -20z m-36 -41
c11 -11 -10 -63 -35 -86 -16 -14 -24 -15 -44 -6 -52 24 -11 121 45 107 14 -4
29 -10 34 -15z"/>
<path d="M2585 3044 c-17 -26 -15 -41 4 -29 6 3 15 15 21 25 16 30 -6 33 -25
4z"/>
<path d="M918 3017 c-51 -34 -65 -54 -48 -71 7 -7 10 -5 10 7 0 30 14 18 65
-58 28 -41 53 -74 56 -75 3 0 25 14 48 30 71 52 81 112 27 166 -45 45 -92 46
-158 1z m145 -15 c29 -28 36 -75 14 -102 -14 -18 -58 -50 -68 -50 -4 0 -29 30
-54 67 -52 74 -51 77 19 108 35 15 51 11 89 -23z"/>
<path d="M2616 2955 c-15 -16 -14 -28 10 -74 7 -14 11 -28 8 -33 -10 -15 -43
-8 -64 14 -11 12 -23 19 -26 15 -10 -10 43 -57 64 -57 11 0 25 7 33 16 13 16
12 20 -16 86 -10 26 21 35 45 13 11 -10 20 -14 20 -8 0 13 -33 43 -48 43 -6 0
-17 -7 -26 -15z"/>
<path d="M2358 2612 c-45 -47 -273 -332 -317 -395 -40 -59 -47 -99 -26 -157
l16 -45 -96 -140 c-52 -77 -105 -153 -118 -168 l-22 -29 -114 168 c-109 159
-114 168 -103 198 31 90 22 170 -30 276 -46 94 -161 205 -268 259 -91 45 -135
51 -171 22 -19 -15 -24 -30 -27 -88 -8 -138 66 -321 169 -423 74 -73 137 -104
214 -106 l60 -2 122 -172 123 -172 -22 -32 c-145 -207 -242 -321 -376 -438
-136 -121 -149 -141 -132 -215 15 -70 39 -86 108 -77 71 9 94 38 152 188 27
70 66 159 88 199 44 82 202 327 211 327 7 0 121 -175 186 -284 46 -78 65 -122
125 -279 18 -49 46 -102 61 -118 25 -26 33 -29 93 -29 76 0 84 8 93 94 7 69
-2 82 -135 198 -59 51 -119 107 -135 123 -36 39 -257 330 -257 340 0 3 54 82
119 174 l119 168 57 6 c98 10 110 24 296 337 144 241 133 220 120 220 -5 0
-80 -99 -166 -220 -86 -121 -160 -220 -166 -220 -25 0 3 49 139 249 169 247
166 241 155 241 -4 0 -80 -101 -168 -225 -147 -206 -175 -239 -188 -217 -3 4
67 112 154 241 88 129 157 236 154 239 -7 7 10 28 -170 -223 -87 -121 -160
-223 -164 -227 -3 -4 -12 -3 -20 1 -11 7 22 61 143 236 86 125 155 229 153
231 -2 2 -19 -13 -39 -34z"/>
<path d="M2493 625 c-79 -34 -34 -185 56 -185 61 0 94 59 68 121 -27 63 -72
87 -124 64z m83 -39 c53 -53 39 -126 -24 -126 -63 0 -109 110 -60 144 32 23
46 20 84 -18z"/>
<path d="M991 589 c-46 -43 -47 -104 -2 -128 25 -14 51 -14 51 -1 0 6 -8 10
-18 10 -23 0 -52 30 -52 53 0 21 4 21 35 1 13 -8 36 -14 52 -12 23 2 29 8 31
35 2 23 -3 35 -20 47 -30 21 -50 20 -77 -5z m74 -13 c24 -17 13 -46 -17 -46
-13 0 -32 8 -43 16 -20 15 -20 15 -1 30 25 18 37 18 61 0z"/>
<path d="M2333 544 c-29 -14 -53 -30 -53 -36 0 -5 6 -8 13 -5 6 3 29 12 50 21
l37 16 0 -95 c0 -57 4 -95 10 -95 6 0 10 43 10 110 0 61 -3 110 -7 109 -5 0
-32 -12 -60 -25z"/>
<path d="M1146 514 c-9 -25 -8 -30 20 -63 21 -25 24 -34 14 -46 -12 -15 -35
-11 -62 13 -16 14 -18 13 -18 -1 0 -37 82 -51 100 -17 12 22 3 47 -24 70 -9 7
-16 19 -16 26 0 17 32 18 48 2 17 -17 28 -2 12 17 -17 20 -66 20 -74 -1z"/>
<path d="M1276 449 c-14 -38 -26 -79 -26 -89 0 -23 32 -42 54 -34 23 9 19 26
-4 19 -29 -9 -35 18 -15 70 15 40 19 44 41 39 13 -3 24 -2 24 4 0 5 -9 12 -21
15 -16 4 -19 11 -14 26 3 12 2 21 -3 21 -5 0 -21 -32 -36 -71z"/>
<path d="M2170 487 c-30 -15 -41 -73 -16 -83 12 -5 13 -11 6 -25 -25 -46 20
-99 74 -85 57 14 74 70 32 103 -18 14 -23 26 -19 45 4 19 -1 30 -18 42 -28 19
-27 19 -59 3z m54 -30 c16 -26 -14 -53 -43 -38 -26 14 -27 36 -3 50 21 13 32
10 46 -12z m34 -79 c30 -25 -10 -75 -51 -64 -33 8 -41 33 -22 63 16 24 42 25
73 1z"/>
<path d="M1561 370 c-7 -55 -9 -105 -6 -110 3 -6 25 -10 49 -10 53 0 76 22 76
74 0 57 -14 76 -58 76 -37 0 -38 0 -34 35 2 19 0 35 -5 35 -6 0 -15 -45 -22
-100z m84 6 c46 -34 7 -119 -51 -108 -25 5 -26 7 -20 51 3 25 14 52 23 59 21
15 25 15 48 -2z"/>
<path d="M1843 390 c-45 -18 -58 -95 -23 -130 23 -23 82 -27 99 -6 10 12 5 14
-35 13 -44 -2 -49 0 -58 26 -8 22 -7 35 5 55 18 33 41 39 63 16 9 -9 20 -13
24 -9 7 7 -34 46 -47 44 -3 0 -16 -4 -28 -9z"/>
<path d="M1360 310 c0 -5 7 -10 15 -10 8 0 15 5 15 10 0 6 -7 10 -15 10 -8 0
-15 -4 -15 -10z"/>
<path d="M1986 273 c-11 -11 -6 -23 9 -23 8 0 15 4 15 9 0 13 -16 22 -24 14z"/>
<path d="M1720 250 c0 -5 7 -10 15 -10 8 0 15 5 15 10 0 6 -7 10 -15 10 -8 0
-15 -4 -15 -10z"/>
</g>
</svg>
